<svg width="1814" height="598" viewBox="0 0 1814 598" fill="none" xmlns="http://www.w3.org/2000/svg">
<g opacity="0.6">
<path d="M1814 9.23758C1490.08 9.04046 1166.32 13.807 842.479 19.2007C702.362 21.5482 561.285 20.7776 421.18 15.8319C245.8 9.64971 70.3402 15.4735 -105 9.23758" stroke="url(#paint0_linear_101_708)" stroke-opacity="0.5" stroke-width="0.1" stroke-miterlimit="10"/>
<path d="M1814 38.3481C1722.22 38.3481 1630.42 37.3709 1538.65 37.8502C1456.64 38.2743 1374.82 47.4739 1292.83 49.0594C1140.11 52.0091 987.417 48.58 834.71 52.0645C699.168 55.1617 562.226 63.3657 426.776 50.8477C347.831 43.4733 269.698 40.1179 190.686 37.076C92.0707 33.2781 -6.42466 43.5839 -105 38.3481" stroke="url(#paint1_linear_101_708)" stroke-opacity="0.5" stroke-width="0.1" stroke-miterlimit="10"/>
<path d="M1814 65.1365C1723.54 65.1365 1632.84 62.8927 1542.41 65.3137C1457.43 67.5969 1372.94 83.5992 1288.02 87.7129C1135.01 95.1334 983.193 73.9349 830.339 77.714C695.836 80.9814 563.239 107.514 428.589 83.7763C349.883 69.8998 273.616 59.0348 194.337 55.8659C94.3895 51.9293 -5.06537 71.0808 -105 65.1365" stroke="url(#paint2_linear_101_708)" stroke-opacity="0.5" stroke-width="0.1" stroke-miterlimit="10"/>
<path d="M1814 92.6098C1725.18 92.6098 1635.71 89.1298 1546.95 93.9292C1458.2 98.7286 1370.71 120.814 1282.22 127.946C1201.79 134.428 1122.48 132.688 1042.47 118.576C970.759 105.918 901.102 96.7783 828.807 98.155C765.44 99.3787 706.071 113.184 643.49 126.053C571.874 140.795 498.139 133.912 427.189 115.135C349.097 94.4455 275.442 74.655 195.697 72.3987C95.1091 69.5305 -4.34575 97.5622 -105 92.6098" stroke="url(#paint3_linear_101_708)" stroke-opacity="0.5" stroke-width="0.1" stroke-miterlimit="10"/>
<path d="M1814 119.765C1727.1 119.765 1638.88 115.087 1552.12 122.571C1459.42 130.552 1368.3 159.457 1275.8 170.301C1196.38 179.732 1116.43 173.268 1038.26 151.095C968.467 131.583 900.996 114.152 829.66 114.954C763.601 115.698 703.832 139.659 639.705 159.037C566.917 181.031 494.887 172.688 423.205 146.016C346.378 117.378 275.455 86.5259 195.164 85.7049C94.4028 84.6549 -4.06589 122.972 -105 119.746" stroke="url(#paint4_linear_101_708)" stroke-opacity="0.5" stroke-width="0.1" stroke-miterlimit="10"/>
<path d="M1814 146.388C1729.15 146.504 1642.22 140.568 1557.67 150.946C1460.6 162.759 1365.77 199.208 1269.06 214.435C1187.9 227.198 1112.9 215.327 1034.62 183.263C967.601 155.796 902.688 128.29 832.392 128.232C762.881 128.232 701.047 164.796 635.081 191.487C559.933 221.884 490.636 213.038 417.208 176.318C342.473 138.958 273.856 94.8481 193.125 95.818C92.5104 97.137 -4.10587 147.28 -105 146.388" stroke="url(#paint5_linear_101_708)" stroke-opacity="0.5" stroke-width="0.1" stroke-miterlimit="10"/>
<path d="M1814 172.372C1731.3 172.546 1645.67 165.963 1563.46 178.704C1461.94 194.428 1363.56 237.841 1262.4 257.438C1180.11 273.374 1108.68 256.334 1031.66 213.695C968.122 178.51 905.714 140.383 836.562 139.182C763.479 137.904 697.593 188.037 630 221.789C551.947 260.768 485.301 252.48 409.872 204.981C338.042 159.747 271.063 101.675 189.984 104.928C89.7278 108.955 -4.34444 170.513 -105 172.372" stroke="url(#paint6_linear_101_708)" stroke-opacity="0.5" stroke-width="0.1" stroke-miterlimit="10"/>
<path d="M1814 234.274C1733.43 234.378 1649.16 231.232 1569.19 237.897C1463.35 246.716 1361.43 269.256 1256.08 280.013C1172.14 288.59 1104.78 278.771 1029.41 254.598C969.796 235.481 909.92 213.402 841.742 212.238C765.104 210.943 693.942 240.165 624.805 258.125C588.592 267.484 550.419 276.251 510.941 274.235C472.302 272.254 435.715 261.644 401.926 249.905C333.816 226.297 267.463 193.799 186.415 196.285C86.6207 199.352 -4.28704 232.119 -104.628 234.247" stroke="url(#paint7_linear_101_708)" stroke-opacity="0.6" stroke-width="0.2" stroke-miterlimit="10"/>
<path d="M1813.74 259.429C1735.13 259.559 1652.23 256.335 1574.44 263.773C1464.56 274.252 1359.46 299.703 1250.21 312.32C1164.35 322.243 1100.88 310.434 1027.54 281.282C971.943 259.177 914.571 232.162 847.007 230.329C767.065 228.165 689.787 264.26 619.331 284.688C582.425 295.393 541.721 306.68 500.497 304.195C461.858 301.867 425.658 289.146 393.348 275.955C328.928 249.645 263.255 210.587 182.007 214.071C82.6389 218.346 -4.76465 256.092 -104.839 259.429" stroke="url(#paint8_linear_101_708)" stroke-opacity="0.6" stroke-width="0.2" stroke-miterlimit="10"/>
<path d="M1813.72 270.602C1736.99 270.759 1655.32 267.535 1579.52 275.52C1466.05 287.485 1358.13 315.621 1245.49 329.923C1202.6 335.363 1161.95 338.508 1119.94 328.967C1085.71 321.191 1055.6 307.54 1026.56 293.741C974.593 269.073 919.74 237.436 852.335 234.959C769.461 231.909 685.975 274.547 614.373 297.061C576.827 308.869 533.618 322.546 490.823 319.653C452.011 317.046 416.29 302.387 385.366 287.911C324.37 259.376 259.483 214.209 177.795 218.58C78.7869 223.889 -4.99268 266.31 -104.894 270.646" stroke="url(#paint9_linear_101_708)" stroke-opacity="0.6" stroke-width="0.2" stroke-miterlimit="10"/>
<path d="M1813.71 281.595C1738.59 281.76 1658.02 278.554 1583.97 286.904C1467.62 300.024 1357.65 330.576 1242.17 346.225C1199.14 352.055 1158.61 355.67 1116.81 344.843C1082.9 336.006 1054 320.844 1026.37 305.69C977.459 278.901 924.896 243.293 857.159 240.295C813.87 238.375 770.341 253.103 732.955 265.572C691.478 279.405 651.6 295.167 610.137 309.018C572.031 321.739 526.731 337.345 482.496 334.086C443.404 331.21 408.243 315.057 378.424 299.503C320.226 269.091 256.566 218.816 174.092 223.907C75.2565 229.99 -5.0187 276.633 -104.907 281.63" stroke="url(#paint10_linear_101_708)" stroke-opacity="0.6" stroke-width="0.2" stroke-miterlimit="10"/>
<path d="M1813.69 292.386C1739.92 292.551 1660.21 289.336 1587.58 297.843C1469.18 311.702 1357.93 344.339 1240.52 360.961C1197.69 367.044 1156.85 370.928 1115.48 359.328C1081.61 349.83 1053.58 333.364 1026.94 317.168C980.07 288.676 929.493 250.113 860.929 246.785C816.454 244.648 771.66 260.601 733.688 273.791C690.825 288.693 649.748 305.655 606.886 320.574C568.247 334.033 521.614 350.864 476.194 347.432C436.689 344.443 402.127 327.282 373.121 310.833C316.722 278.866 255.007 224.984 171.214 230.415C72.3784 236.819 -4.83251 287.208 -104.92 292.351" stroke="url(#paint11_linear_101_708)" stroke-opacity="0.6" stroke-width="0.2" stroke-miterlimit="10"/>
<path d="M1813.67 302.987C1740.93 303.126 1661.71 299.85 1590.15 308.288C1470.76 322.364 1359.2 356.712 1240.88 373.787C1198.63 379.869 1157.04 383.831 1116.25 372.153C1082.1 362.378 1054.46 345.025 1028.31 328.142C982.188 298.304 933.103 258.195 863.101 254.962C817.64 252.859 772.726 268.978 734.22 282.768C690.452 298.408 648.616 316.238 604.861 331.896C565.729 345.903 518.896 363.003 472.543 359.597C432.572 356.66 398.596 339.186 369.95 322.034C313.991 288.537 255.22 233.291 169.468 238.67C70.3799 244.883 -4.49936 298.373 -105 302.97" stroke="url(#paint12_linear_101_708)" stroke-width="0.3" stroke-miterlimit="10"/>
<path d="M1813.65 313.415C1741.19 313.71 1662.22 310.026 1590.96 318.628C1472.38 332.974 1362.25 368.348 1244.87 385.822C1202.74 392.086 1161.17 395.84 1120.41 384.301C1085.77 374.474 1057.57 356.913 1031.05 339.821C984.067 309.548 934.462 268.926 863.54 265.138C817.76 262.696 773.112 278.615 734.434 292.622C690.599 308.505 648.842 326.683 605.02 342.576C565.702 356.843 519.109 373.709 472.409 370.059C432.172 366.914 398.396 349.405 369.697 332.062C313.511 298.096 255.859 243.58 169.428 248.646C70.0599 254.45 -4.04639 309.4 -104.96 313.415" stroke="url(#paint13_linear_101_708)" stroke-width="0.3" stroke-miterlimit="10"/>
<path d="M1813.64 323.607C1740.87 324.146 1662.14 319.497 1590.63 328.699C1474.15 343.688 1366.5 379.644 1251.26 397.735C1208.62 404.434 1168.15 407.918 1126.8 396.301C1091.54 386.404 1062.34 369.026 1034.84 352.082C986.305 322.139 934.609 281.108 863.687 275.938C818.186 272.619 773.379 288.581 735.033 302.579C691.731 318.385 650.601 336.58 607.312 352.403C568.073 366.749 521.48 383.484 474.847 379.148C434.73 375.421 400.461 357.66 371.362 340.508C314.883 307.228 255.566 253.738 170.174 258.656C70.5661 264.399 -3.78016 319.662 -104.934 323.607" stroke="url(#paint14_linear_101_708)" stroke-width="0.3" stroke-miterlimit="10"/>
<path d="M1813.81 319.844C1740.63 320.487 1662.11 314.544 1590.16 324.284C1476.06 339.734 1371.21 376.159 1258.4 394.667C1215.41 401.74 1175.87 404.894 1134.06 393.424C1098.25 383.597 1067.89 366.67 1039.36 349.856C989.196 320.313 935.115 279.431 864.259 273.009C819.172 268.917 774.711 284.549 736.711 298.486C694.142 314.127 653.878 332.209 611.335 347.841C572.217 362.213 526.063 378.47 479.644 373.517C439.486 369.225 404.604 351.386 374.853 334.416C317.627 301.831 256.365 249.679 171.626 254.528C71.5782 260.245 -3.18112 315.864 -104.774 319.792" stroke="url(#paint15_linear_101_708)" stroke-width="0.3" stroke-miterlimit="10"/>
<path d="M1813.79 329.672C1740.09 330.289 1661.62 322.773 1589.16 333.008C1477.67 348.744 1375.88 385.543 1265.72 404.373C1222.55 411.75 1183.76 414.521 1141.61 403.382C1105.15 393.754 1073.65 377.314 1044.02 360.805C991.767 331.792 935.794 291.5 864.739 283.897C820.184 279.136 776.509 294.09 738.883 307.931C697.246 323.259 658.008 341.185 616.398 356.53C577.426 370.911 532.165 386.36 486.025 380.86C445.681 376.037 410.08 358.268 379.436 341.532C321.065 309.669 257.617 259.116 173.331 263.938C72.6706 269.699 -2.66161 325.692 -104.868 329.646" stroke="url(#paint16_linear_101_708)" stroke-width="0.3" stroke-miterlimit="10"/>
<path d="M1813.77 339.308C1739.48 339.795 1661.03 330.471 1587.92 341.15C1479.23 357.025 1380.67 394.154 1273.35 413.088C1230.21 420.717 1191.96 423.089 1149.59 412.436C1112.48 403.104 1079.88 387.238 1049.03 371.232C994.405 342.879 936.727 303.552 865.405 294.854C779.334 284.349 692.357 339.021 622.607 364.793C583.782 379.148 539.747 393.529 494.006 387.507C453.342 382.146 416.995 364.55 385.298 348.067C325.448 316.951 259.629 268.205 175.556 273.053C74.1497 278.892 -1.90214 335.294 -104.841 339.308" stroke="url(#paint17_linear_101_708)" stroke-width="0.3" stroke-miterlimit="10"/>
<path d="M1813.75 348.744C1738.8 349.014 1660.34 337.692 1586.47 348.744C1480.69 364.628 1385.54 401.931 1281.2 420.925C1238.2 428.746 1200.32 430.692 1157.83 420.656C1120.05 411.715 1086.31 396.552 1054.26 381.051C997.257 353.506 937.86 315.491 866.178 305.716C781.413 294.176 698.179 347.267 629.722 372.622C591.869 386.621 547.741 400.732 503.253 393.52C461.95 386.829 425.563 370.606 392.067 354.097C330.498 323.772 262.147 276.998 178.075 281.899C75.802 287.851 -1.06246 344.678 -104.868 348.805" stroke="url(#paint18_linear_101_708)" stroke-width="0.3" stroke-miterlimit="10"/>
<path d="M1813.72 357.999C1738.07 357.999 1659.52 344.504 1584.83 355.965C1482.07 371.736 1390.4 409.195 1289.14 428.086C1113.27 460.922 1021.52 339.699 867.031 316.499C783.757 303.978 704.734 355.157 637.516 380C599.837 393.902 557.414 406.562 513.486 398.942C471.663 391.687 434.423 375.82 399.581 359.624C336.094 330.08 265.092 285.435 180.846 290.414C77.6271 296.497 -0.143354 353.767 -104.908 357.999" stroke="url(#paint19_linear_101_708)" stroke-width="0.3" stroke-miterlimit="10"/>
<path d="M1813.69 367.052C1737.31 366.687 1658.63 350.977 1583.05 362.777C1483.35 378.34 1395.18 415.885 1297.08 434.611C1124.84 467.473 1019.95 352.064 867.95 327.204C786.116 313.805 711.836 362.716 645.844 387.081C608.324 400.931 567.754 411.923 524.452 403.955C482.069 396.135 443.883 380.668 407.643 364.811C342.117 336.136 268.41 293.638 183.804 298.729C79.5728 304.994 0.82971 362.682 -104.947 367.052" stroke="url(#paint20_linear_101_708)" stroke-width="0.3" stroke-miterlimit="10"/>
<path d="M1813.67 375.915C1736.52 375.177 1657.69 357.173 1581.15 369.268C1484.5 384.544 1399.95 422.133 1304.89 440.606C1136.3 473.373 1018.43 364.272 868.896 337.753C788.527 323.502 719.297 370.007 654.464 393.893C617.078 407.666 578.519 416.894 535.883 408.665C492.914 400.332 453.742 385.204 416.063 369.737C348.432 341.932 272.007 301.649 186.975 306.854C81.7176 313.31 1.93529 371.432 -104.894 375.95" stroke="url(#paint21_linear_101_708)" stroke-width="0.3" stroke-miterlimit="10"/>
<path d="M1813.64 384.587C1735.75 383.466 1656.69 363.159 1579.14 375.507C1485.48 390.435 1404.42 428.041 1312.42 446.202C1147.41 478.777 1016.94 376.228 869.855 348.118C790.939 333.034 726.905 377.062 663.178 400.488C625.951 414.173 589.271 421.585 547.341 413.061C503.773 404.198 463.575 389.453 424.483 374.368C354.734 347.432 275.617 309.373 190.053 314.708C83.6894 321.347 2.92099 379.877 -104.974 384.587" stroke="url(#paint22_linear_101_708)" stroke-width="0.3" stroke-miterlimit="10"/>
<path d="M1813.61 393.059C1735 391.565 1655.67 369.008 1577.24 381.563C1486.45 396.1 1408.81 433.698 1319.74 451.503C1158.01 483.826 1015.43 387.95 870.735 358.268C793.257 342.367 734.433 383.918 671.745 406.927C634.678 420.526 599.797 426.122 558.667 417.354C514.499 407.952 473.288 393.546 432.798 378.878C360.996 352.863 279.242 316.951 193.091 322.399C85.6616 329.22 3.89416 388.228 -105.054 393.042" stroke="url(#paint23_linear_101_708)" stroke-width="0.3" stroke-miterlimit="10"/>
<path d="M1813.59 401.348C1734.19 399.497 1654.67 374.777 1575.28 387.506C1487.22 401.626 1412.86 439.198 1326.57 456.62C1167.93 488.648 1013.95 399.428 871.68 368.173C795.495 351.438 741.934 390.687 680.112 413.235C643.165 426.703 610.109 430.613 569.672 421.594C524.931 411.654 482.721 397.534 440.911 383.292C367.138 358.172 282.866 324.371 196.115 329.958C87.6732 336.953 4.94628 396.387 -105.001 401.348" stroke="url(#paint24_linear_101_708)" stroke-width="0.3" stroke-miterlimit="10"/>
<path d="M1813.56 409.438C1733.42 407.283 1653.68 380.53 1573.39 393.389C1487.85 407.084 1416.57 444.656 1332.85 461.669C1251.65 478.178 1165.26 459.54 1089.4 439.625C1016.26 420.413 946.72 395.214 872.48 377.792C797.254 360.136 749.276 397.534 687.92 419.5C606.446 448.653 522.999 411.68 448.426 387.707C372.867 363.447 286.223 331.662 198.9 337.37C89.4988 344.513 5.86587 404.364 -105.054 409.447" stroke="url(#paint25_linear_101_708)" stroke-width="0.3" stroke-miterlimit="10"/>
<path d="M1813.53 417.345C1732.65 414.938 1652.89 386.333 1571.58 399.289C1488.32 412.566 1419.87 450.112 1338.41 466.752C1257.95 483.209 1169.28 465.335 1093.07 447.097C1018.44 429.232 947.412 405.641 873.186 387.081C798.96 368.521 755.604 404.085 695.035 425.739C615.412 454.196 528.488 414.443 455.208 392.155C378.064 368.694 289.221 338.838 201.418 344.625C91.1641 351.898 6.70511 412.149 -105.028 417.345" stroke="url(#paint26_linear_101_708)" stroke-width="0.3" stroke-miterlimit="10"/>
<path d="M1813.51 425.052C1731.86 422.445 1652.17 392.242 1569.91 405.276C1488.63 418.144 1422.71 455.673 1343.41 471.991C1263.56 488.37 1172.86 471.227 1096.3 454.5C1020.36 437.895 947.905 415.72 873.799 396.022C838.837 386.733 813.216 386.351 779.414 398.333C751.94 408.074 728.704 422.22 701.27 432.03C664.67 445.133 635.518 444.768 597.185 435.027C551.125 423.306 506.251 409.829 461.057 396.734C382.62 374.073 291.846 345.955 203.643 351.794C92.6296 359.145 7.4645 419.795 -105.068 425.052" stroke="url(#paint27_linear_101_708)" stroke-width="0.3" stroke-miterlimit="10"/>
<path d="M1813.48 432.578C1731.07 429.971 1651.62 398.325 1568.4 411.402C1488.74 423.923 1425.07 461.591 1347.36 477.492C1267.93 493.749 1175.57 477.318 1098.7 461.852C1021.84 446.385 948.039 425.357 874.172 404.503C840.037 394.867 815.081 393.502 781.572 405.424C755.005 414.878 732.834 428.833 706.333 438.356C669.933 451.442 641.234 450.052 603.568 439.99C557.281 427.625 511.714 414.174 465.667 401.444C386.244 379.496 293.698 352.941 205.362 358.798C93.7357 366.192 7.99759 427.208 -105.081 432.5" stroke="url(#paint28_linear_101_708)" stroke-width="0.3" stroke-miterlimit="10"/>
<path d="M1813.45 439.894C1730.27 437.356 1651.28 404.616 1567.12 417.728C1488.65 429.971 1426.96 467.925 1350.33 483.357C1271.01 499.354 1177.65 483.67 1100.3 469.307C1022.33 454.839 947.892 434.689 874.332 412.688C840.889 402.695 816.214 400.593 782.958 412.514C757.11 421.768 735.832 435.636 710.064 444.977C673.837 458.106 645.164 455.977 608.071 445.533C561.718 432.499 515.617 419.014 468.865 406.553C388.922 385.239 294.83 360.058 206.561 365.871C94.4951 373.256 8.34402 434.619 -105.214 439.894" stroke="url(#paint29_linear_101_708)" stroke-width="0.3" stroke-miterlimit="10"/>
<path d="M1813.43 447.028C1729.49 444.725 1651.17 411.193 1566.09 424.34C1488.42 436.34 1428.07 474.459 1352.36 489.709C1273.28 505.627 1178.7 490.282 1101.15 476.814C1022.39 463.129 947.612 443.526 874.399 420.334C841.502 409.907 816.694 407.388 783.611 419.387C758.296 428.572 737.684 442.448 712.409 451.72C676.315 464.962 647.243 462.459 610.589 451.537C564.329 437.756 517.883 424.175 470.61 411.923C390.428 391.147 295.244 367.096 207.334 372.822C95.0015 380.13 8.63714 441.823 -105.187 447.028" stroke="url(#paint30_linear_101_708)" stroke-width="0.3" stroke-miterlimit="10"/>
<path d="M1813.39 453.979C1729.02 451.911 1651.25 418.015 1565.65 431.283C1488.25 443.274 1428.25 481.359 1352.79 496.521C1273.79 512.388 1178.78 496.73 1101.21 483.548C1022.16 470.115 947.626 450.66 874.319 427.364C841.542 416.937 816.387 414.765 783.531 426.686C758.389 435.81 737.91 449.565 712.769 458.715C676.795 471.801 647.189 469.368 610.882 458.133C564.822 443.882 518.322 430.197 470.85 418.067C391.054 397.673 294.631 373.891 207.4 379.834C95.2279 387.464 8.30398 448.114 -105.227 453.953" stroke="url(#paint31_linear_101_708)" stroke-width="0.3" stroke-miterlimit="10"/>
<path d="M1813.36 460.817C1728.81 458.853 1651.26 424.731 1565.46 438.156C1488.18 450.251 1427.88 488.014 1352.36 503.081C1273.36 518.843 1178.57 502.499 1101.11 489.231C1022.32 475.728 948.105 456.307 874.292 434.115C804.422 413.114 769.794 445.411 712.249 465.553C676.275 478.143 646.483 475.849 610.509 464.571C564.649 450.19 518.229 436.54 470.77 424.549C391.44 404.511 293.764 380.616 207.16 387.063C95.4675 395.388 7.47766 453.57 -105.294 460.687" stroke="url(#paint32_linear_101_708)" stroke-width="0.3" stroke-miterlimit="10"/>
<path d="M1813.33 467.552C1728.53 465.657 1651.17 431.283 1565.1 444.821C1487.82 456.986 1427.28 494.349 1351.72 509.277C1272.72 524.918 1178.21 507.948 1100.88 494.636C1022.39 481.124 948.452 461.791 874.212 440.72C804.929 421.047 769.061 452.771 711.476 472.001C675.502 484.044 645.444 481.819 609.79 470.523C564.143 456.065 517.856 442.518 470.41 430.736C391.401 411.107 292.752 387.464 206.867 394.345C95.7343 403.243 6.66523 458.897 -105.281 467.143" stroke="url(#paint33_linear_101_708)" stroke-width="0.3" stroke-miterlimit="10"/>
<path d="M1813.31 474.164C1728.21 472.322 1650.97 437.669 1564.58 451.268C1487.4 463.415 1426.49 500.353 1350.88 515.125C1271.88 530.504 1177.67 513.109 1100.49 499.788C1022.37 486.32 948.598 467.134 874.092 447.227C805.302 428.867 768.208 459.888 710.477 478.222C674.41 489.665 644.125 487.441 608.737 476.154C563.343 461.669 517.15 448.279 469.784 436.774C390.974 417.615 291.726 394.554 206.427 401.792C95.8406 411.167 5.74565 464.206 -105.347 473.469" stroke="url(#paint34_linear_101_708)" stroke-width="0.3" stroke-miterlimit="10"/>
<path d="M1813.28 480.663C1727.82 478.838 1650.73 443.917 1563.9 457.524C1486.78 469.602 1425.51 506.122 1349.83 520.599C1270.86 535.709 1177.13 517.922 1099.97 504.645C1022.28 491.264 948.732 472.278 873.919 453.57C805.648 436.496 767.249 466.7 709.251 484.043C673.064 494.87 642.539 492.567 607.378 481.315C562.339 466.756 516.122 453.802 468.931 442.509C390.188 423.879 290.66 401.67 205.855 409.238C95.9876 418.996 4.78667 469.359 -105.334 479.499" stroke="url(#paint35_linear_101_708)" stroke-width="0.3" stroke-miterlimit="10"/>
<path d="M1813.24 487.041C1727.4 485.216 1650.33 449.99 1563.07 463.58C1486.02 475.563 1424.33 511.597 1348.56 525.777C1269.62 540.549 1176.29 522.484 1099.28 509.268C1022 496.026 948.651 477.3 873.665 459.809C805.901 443.995 766.116 473.303 707.772 489.596C671.411 499.753 640.66 497.32 605.699 486.12C560.931 471.658 514.883 458.946 467.798 448.053C389.015 430.005 289.5 409.004 205.148 416.772C95.9868 426.825 3.74682 474.433 -105.414 485.364" stroke="url(#paint36_linear_101_708)" stroke-width="0.3" stroke-miterlimit="10"/>
<path d="M1813.21 493.28C1726.93 491.447 1649.88 455.917 1562.13 469.402C1485.13 481.237 1423 516.749 1347.2 530.591C1268.3 544.998 1175.46 526.716 1098.52 513.613C1021.81 500.579 948.492 482.149 873.426 465.9C806.141 451.329 764.891 479.638 706.147 494.827C669.586 504.28 638.596 501.665 603.781 490.482C559.319 476.158 513.478 463.733 466.546 453.284C387.63 435.905 288.422 416.303 204.429 424.253C96.0272 434.506 2.78801 479.308 -105.387 490.908" stroke="url(#paint37_linear_101_708)" stroke-width="0.3" stroke-miterlimit="10"/>
<path d="M1813.19 499.397C1726.42 497.52 1649.31 461.651 1561.05 475.067C1484.11 486.693 1421.52 521.641 1345.65 535.11C1266.8 549.099 1174.46 530.687 1097.69 517.731C1021.52 504.871 948.279 486.859 873.186 471.861C806.368 458.523 763.572 485.764 704.388 499.788C667.601 508.477 636.371 505.662 601.662 494.575C557.495 480.421 511.845 468.327 465.054 458.384C385.885 441.675 287.236 423.732 203.55 431.821C95.9342 442.248 1.73554 484.139 -105.427 496.338" stroke="url(#paint38_linear_101_708)" stroke-width="0.3" stroke-miterlimit="10"/>
<path d="M1813.16 505.375C1725.88 503.446 1648.77 467.23 1559.86 480.463C1482.97 491.916 1419.9 526.273 1343.94 539.324C1265.16 552.853 1173.4 534.38 1096.73 521.589C1021.09 508.964 947.919 491.403 872.893 477.674C806.527 465.509 762.093 491.638 702.443 504.454C665.403 512.405 633.932 509.285 599.304 498.372C555.445 484.433 510.011 472.708 463.402 463.302C383.926 447.358 286.077 431.265 202.63 439.451C95.814 449.878 0.722754 488.892 -105.427 501.596" stroke="url(#paint39_linear_101_708)" stroke-width="0.3" stroke-miterlimit="10"/>
<path d="M1813.13 511.205C1725.3 509.207 1648.12 472.643 1558.65 485.694C1481.72 496.877 1418.15 530.643 1342.1 543.242C1263.4 556.276 1172.28 537.811 1095.61 525.212C1020.53 512.856 947.412 495.799 872.466 483.348C806.554 472.391 760.387 497.302 700.244 508.85C662.938 516.01 631.241 512.587 596.639 501.725C553.099 488.031 507.892 476.716 461.483 467.898C381.701 452.77 284.837 438.659 201.578 446.94C95.6008 457.428 -0.34337 493.401 -105.481 506.539" stroke="url(#paint40_linear_101_708)" stroke-width="0.3" stroke-miterlimit="10"/>
<path d="M1813.11 516.862C1724.73 514.803 1647.45 477.891 1557.2 490.725C1480.39 501.656 1416.29 534.762 1340.16 546.884C1261.55 559.405 1171.05 540.984 1094.56 528.636C1020.03 516.576 946.96 500.084 872.174 488.901C806.674 479.099 758.682 502.803 698.073 513.022C660.5 519.374 628.549 515.629 593.934 504.845C550.724 491.425 505.759 480.552 459.578 472.356C379.276 458.106 283.612 446.202 200.485 454.465C95.3345 464.892 -1.36902 497.842 -105.507 511.353" stroke="url(#paint41_linear_101_708)" stroke-width="0.3" stroke-miterlimit="10"/>
<path d="M1813.08 522.424C1724.07 520.243 1646.64 482.975 1555.75 495.566C1478.95 506.192 1414.29 538.638 1338.1 550.255C1259.56 562.22 1169.75 543.903 1093.36 531.765C1019.39 520.008 946.374 504.142 871.787 494.227C806.674 485.538 756.79 507.965 695.728 516.819C657.875 522.337 625.685 518.192 591.017 507.557C548.135 494.437 503.419 484.034 457.487 476.493C376.692 463.181 282.36 453.562 199.34 461.834C95.0149 472.218 -2.38134 502.022 -105.534 515.846" stroke="url(#paint42_linear_101_708)" stroke-width="0.3" stroke-miterlimit="10"/>
<path d="M1813.05 527.802C1723.4 525.509 1645.84 487.884 1554.19 500.197C1477.46 510.511 1412.28 542.27 1335.96 553.357C1257.52 564.758 1168.4 546.571 1092.13 534.702C1018.69 523.275 945.774 508.078 871.428 499.432C806.648 491.899 754.832 512.97 693.303 520.504C655.184 525.17 622.767 520.617 587.979 510.077C545.431 497.283 500.975 487.383 455.315 480.533C374.04 468.23 281.147 461 198.167 469.237C94.655 479.499 -3.35418 506.158 -105.56 520.26" stroke="url(#paint43_linear_101_708)" stroke-width="0.3" stroke-miterlimit="10"/>
<path d="M1813.03 533.016C1722.75 530.6 1644.99 492.62 1552.63 504.637C1475.88 514.621 1410.16 545.676 1333.75 556.216C1255.42 567.017 1167 549.013 1090.79 537.421C1017.87 526.325 945.054 511.858 870.948 504.472C806.448 498.051 752.66 517.749 690.691 523.892C652.292 527.707 619.649 522.719 584.728 512.336C542.511 499.873 498.315 490.484 452.943 484.339C371.122 473.104 279.814 468.343 196.861 476.519C94.2685 486.651 -4.32702 510.094 -105.587 524.431" stroke="url(#paint44_linear_101_708)" stroke-width="0.3" stroke-miterlimit="10"/>
<path d="M1813 538.065C1722.07 535.519 1644.11 497.226 1550.99 508.878C1474.25 518.514 1407.97 548.865 1331.47 558.832C1253.25 568.998 1165.55 551.22 1089.43 539.924C1017 529.176 944.322 515.481 870.535 509.347C806.261 504.003 750.515 522.302 688.147 527.055C649.508 530.001 616.612 524.562 581.557 514.308C539.668 502.2 495.74 493.349 450.678 487.937C368.338 477.831 278.643 475.581 195.689 483.696C93.8427 493.654 -5.13924 513.857 -105.52 528.402" stroke="url(#paint45_linear_101_708)" stroke-width="0.3" stroke-miterlimit="10"/>
<path d="M1812.97 542.93C1721.37 540.254 1643.19 501.57 1549.32 512.918C1472.59 522.206 1405.73 551.828 1329.14 561.177C1251.05 570.735 1164.08 553.157 1087.98 542.174C1016.03 531.747 943.509 518.896 870.028 514.004C805.875 509.729 748.223 526.603 685.375 529.957C646.456 532.034 613.427 526.117 578.039 516.002C536.473 504.255 492.813 495.953 448.08 491.29C260.215 471.053 76.1217 505.193 -105.707 532.129" stroke="url(#paint46_linear_101_708)" stroke-width="0.3" stroke-miterlimit="10"/>
<path d="M1812.95 547.639C1720.67 544.815 1642.26 505.792 1547.62 516.784C1470.89 525.699 1403.46 554.582 1326.77 563.384C1248.81 572.334 1162.58 554.973 1086.63 544.311C1015.1 534.241 942.789 522.224 869.642 518.6C805.502 515.394 746.038 530.765 682.724 532.764C643.579 533.98 610.27 527.55 574.682 517.584C533.592 506.001 489.956 498.615 445.655 494.531C262.574 477.648 71.6185 508.99 -105.667 535.744" stroke="url(#paint47_linear_101_708)" stroke-width="0.3" stroke-miterlimit="10"/>
<path d="M1812.92 552.158C1719.96 549.186 1641.31 509.824 1545.9 520.451C1469.16 529.027 1401.16 557.137 1324.38 565.348C1246.56 573.664 1161.07 556.537 1085.21 546.232C1014.06 536.543 942.003 525.378 869.189 522.936C804.929 520.781 743.786 534.701 679.992 535.283C640.621 535.64 607.098 528.706 571.231 518.861C530.407 507.661 487.065 500.909 443.137 497.555C359.45 491.169 274.592 496.608 191.598 504.42C92.0169 513.795 -7.7111 524.083 -105.694 539.176" stroke="url(#paint48_linear_101_708)" stroke-width="0.3" stroke-miterlimit="10"/>
<path d="M1812.89 556.494C1720.05 553.427 1641.51 513.995 1546.19 523.71C1469.76 531.53 1401.63 558.545 1325.45 566.739C1248.43 575.019 1164.67 558.588 1089.47 548.665C1016.78 539.107 943.135 528.428 868.723 527.09C802.664 525.9 738.297 539.055 672.384 537.517C632.6 536.587 599.437 528.107 562.97 518.688C525.091 508.904 485.093 503.299 444.642 500.649C358.544 495.01 273.153 503.325 188.081 511.171C89.8849 520.226 -9.19027 527.194 -105.761 542.331" stroke="url(#paint49_linear_101_708)" stroke-width="0.3" stroke-miterlimit="10"/>
<path d="M1812.88 560.638C1719.4 557.423 1640.54 517.662 1544.51 527.003C1468.06 534.441 1399.39 560.743 1323.09 568.337C1246.24 575.949 1163.14 559.752 1088.04 550.151C1015.7 540.888 942.336 531.034 868.31 531.034C801.864 531.034 736.072 542.443 669.613 539.532C629.775 537.795 596.333 528.827 559.586 519.608C521.96 510.172 482.228 505.158 442.124 503.177C355.746 498.911 271.834 509.885 186.775 517.514C89.2187 526.264 -9.84296 529.992 -105.734 545.319" stroke="url(#paint50_linear_101_708)" stroke-width="0.3" stroke-miterlimit="10"/>
<path d="M1812.85 564.584C1718.67 561.221 1639.65 521.138 1542.81 530.114C1466.33 537.204 1397.13 562.768 1320.72 569.771C1244.02 576.818 1161.58 560.734 1086.53 551.446C1014.58 542.522 941.497 533.555 867.856 534.823C800.931 535.979 733.846 545.676 666.828 541.41C626.937 538.864 593.228 529.419 556.241 520.399C518.935 511.302 479.39 506.879 439.659 505.567C353.055 502.691 270.528 516.272 185.496 523.693C88.5524 532.156 -10.3629 532.625 -105.694 548.144" stroke="url(#paint51_linear_101_708)" stroke-width="0.3" stroke-miterlimit="10"/>
<path d="M1812.83 568.328C1717.99 564.853 1638.63 524.431 1541.12 533.033C1464.63 539.784 1394.89 564.653 1318.36 571.031C1241.83 577.408 1160.05 561.542 1085.19 552.575C1013.42 543.972 940.684 535.848 867.443 538.394C799.932 540.74 731.701 548.699 664.123 543.095C624.152 539.784 590.203 529.827 552.87 521.016C515.537 512.205 476.499 508.416 437.141 507.756C350.537 506.288 269.102 522.415 184.163 529.627C87.7796 537.812 -11.0556 535.031 -105.747 550.776" stroke="url(#paint52_linear_101_708)" stroke-width="0.3" stroke-miterlimit="10"/>
<path d="M1812.81 571.874C1717.32 568.224 1637.69 527.559 1539.48 535.761C1462.95 542.183 1392.7 566.295 1316.07 572.134C1239.75 577.947 1158.47 562.185 1083.75 553.522C1012.19 545.233 939.858 537.96 866.977 541.757C798.8 545.311 729.557 551.541 661.379 544.624C621.528 540.575 587.179 530.096 549.58 521.485C512.673 513.039 473.635 509.789 434.703 509.763C348.099 509.694 267.704 528.289 182.885 535.31C86.9541 543.251 -11.6414 537.23 -105.747 553.227" stroke="url(#paint53_linear_101_708)" stroke-width="0.3" stroke-miterlimit="10"/>
<path d="M1812.8 575.202C1716.67 571.431 1636.79 530.426 1537.88 538.316C1461.31 544.399 1390.56 567.859 1313.83 573.073C1237.59 578.286 1157.13 562.646 1082.39 554.287C1010.98 546.328 939.005 539.872 866.551 544.903C797.641 549.682 727.505 554.183 658.701 545.98C618.863 541.244 584.221 530.235 546.342 521.824C509.609 513.674 470.903 511.006 432.331 511.597C345.86 512.909 266.304 533.885 181.605 540.74C86.2208 548.456 -12.1214 539.194 -105.787 555.512" stroke="url(#paint54_linear_101_708)" stroke-width="0.3" stroke-miterlimit="10"/>
<path d="M1812.77 578.321C1716.04 574.42 1635.89 533.138 1536.32 540.68C1459.71 546.493 1388.43 569.198 1311.66 573.916C1235.58 578.591 1155.77 562.976 1081.08 554.93C1009.79 547.275 938.179 541.627 866.138 547.866C796.455 553.896 725.453 556.694 656.17 547.231C616.372 541.801 581.437 530.27 543.225 522.033C506.718 514.213 468.212 512.058 429.973 513.248C343.729 515.916 264.852 539.168 180.3 545.876C85.3686 553.409 -12.6805 540.932 -105.893 557.572" stroke="url(#paint55_linear_101_708)" stroke-width="0.3" stroke-miterlimit="10"/>
<path d="M1812.76 581.223C1715.5 577.2 1635.05 535.622 1534.84 542.86C1458.19 548.404 1386.51 570.423 1309.56 574.619C1233.62 578.755 1154.4 563.167 1079.82 555.399C1008.63 547.97 937.38 543.173 865.765 550.594C795.269 557.893 723.627 559.022 653.744 548.335C614.026 542.252 578.759 530.2 540.293 522.154C503.973 514.56 465.68 512.987 427.841 514.742C341.903 518.731 263.573 544.129 179.181 550.75C84.5822 558.145 -13.0672 542.469 -105.867 559.509" stroke="url(#paint56_linear_101_708)" stroke-width="0.3" stroke-miterlimit="10"/>
<path d="M1812.75 583.891C1714.87 579.772 1634.21 537.916 1533.44 544.868C1456.73 550.151 1384.6 571.517 1307.58 575.201C1231.75 578.825 1153.14 563.236 1078.64 555.712C1007.52 548.526 936.607 544.529 865.392 553.105C794.177 561.681 721.829 561.177 651.4 549.308C611.775 542.626 576.161 530.192 537.482 522.18C501.508 514.716 463.162 513.778 425.789 516.098C340.198 521.311 262.308 548.76 178.088 555.295C83.9031 562.602 -13.4666 543.755 -105.867 561.255" stroke="url(#paint57_linear_101_708)" stroke-width="0.3" stroke-miterlimit="10"/>
<path d="M1812.67 586.376C1714.26 582.17 1633.42 540.037 1532.06 546.719C1455.37 551.75 1382.82 572.473 1305.7 575.68C1230.05 578.825 1151.94 563.185 1077.52 555.877C1006.44 548.926 935.861 545.685 865.059 555.39C792.924 565.27 720.15 563.211 649.214 550.177C609.67 542.93 573.749 530.027 534.844 522.128C499.016 514.855 460.87 514.438 423.884 517.228C383.526 520.277 344.181 527.264 305.436 535.014C263.626 543.365 220.604 556.103 177.049 559.474C83.1832 566.747 -13.8534 544.772 -105.88 562.794" stroke="url(#paint58_linear_101_708)" stroke-width="0.3" stroke-miterlimit="10"/>
<path d="M1812.67 588.548C1713.78 584.273 1632.8 541.87 1530.84 548.326C1454.09 553.192 1381.15 573.342 1303.94 576.07C1228.41 578.773 1150.87 563.036 1076.51 555.911C1005.42 549.116 935.128 546.64 864.739 557.441C791.818 568.632 718.564 565.078 647.109 550.915C607.738 543.095 571.51 529.8 532.405 522.015C496.724 514.916 458.752 514.968 422.125 518.235C381.847 521.815 342.729 529.409 304.21 537.655C262.707 546.536 219.618 559.934 176.076 563.332C82.5035 570.622 -14.2266 545.563 -105.894 564.201" stroke="url(#paint59_linear_101_708)" stroke-width="0.3" stroke-miterlimit="10"/>
<path d="M1812.67 590.521C1713.33 586.176 1632.13 543.521 1529.74 549.786C1452.93 554.495 1379.65 574.037 1302.37 576.375C1226.94 578.66 1149.92 562.741 1075.61 555.799C1004.52 549.169 934.475 547.387 864.499 559.274C790.739 571.761 717.152 566.808 645.191 551.558C605.966 543.251 569.472 529.549 530.167 521.85C494.633 514.899 456.887 515.385 420.526 519.078C380.342 523.162 341.423 531.33 303.104 540.028C261.881 549.386 218.739 563.376 175.197 566.825C81.9307 574.211 -14.5729 546.101 -105.934 565.409" stroke="url(#paint60_linear_101_708)" stroke-width="0.3" stroke-miterlimit="10"/>
<path d="M1812.67 592.25C1712.91 587.905 1631.58 544.954 1528.75 551.072C1451.85 555.651 1378.19 574.654 1300.84 576.609C1225.49 578.521 1148.95 562.367 1074.72 555.564C1003.6 549.056 933.756 547.935 864.206 560.838C789.686 574.663 715.913 568.406 643.445 552.149C604.353 543.364 567.62 529.305 528.155 521.676C492.741 514.838 455.128 515.707 419.114 519.791C378.983 524.344 340.278 533.033 302.132 542.148C261.135 551.958 217.966 566.425 174.371 569.953C81.2912 577.495 -14.9726 546.405 -105.934 566.477" stroke="url(#paint61_linear_101_708)" stroke-width="0.3" stroke-miterlimit="10"/>
<path d="M1812.67 593.727C1712.53 589.382 1631.12 546.163 1527.89 552.184C1450.97 556.668 1376.98 575.167 1299.56 576.818C1224.29 578.391 1148.25 561.951 1074.03 555.243C1002.87 548.813 933.156 548.291 864.006 562.194C788.714 577.339 714.9 569.901 641.9 552.636C602.981 543.425 566.034 529.045 526.423 521.468C491.115 514.708 453.689 515.907 417.928 520.338C377.85 525.317 339.318 534.476 301.332 543.973C260.522 554.183 217.393 569.024 173.678 572.647C80.798 580.424 -15.3459 546.406 -105.947 567.364" stroke="url(#paint62_linear_101_708)" stroke-width="0.3" stroke-miterlimit="10"/>
<path d="M1812.67 594.96C1713.02 590.616 1631.88 547.396 1529.25 553C1448.14 557.423 1369.75 577.4 1287.91 576.991C1217.95 576.644 1147.75 561.655 1078.64 555.207C1005.21 548.36 934.928 548.552 863.819 563.21C784.97 579.424 711.09 570.9 635.091 551.619C601.023 542.982 568.566 531.199 534.244 523.11C497.924 514.551 458.046 515.385 420.673 520.138C378.263 525.525 337.666 535.779 297.668 546.206C257.351 556.754 214.488 571.604 171.013 575.08C79.0794 582.387 -16.5315 546.31 -105.934 568.067" stroke="url(#paint63_linear_101_708)" stroke-width="0.3" stroke-miterlimit="10"/>
<path d="M1812.67 595.934C1712.74 591.65 1631.6 548.143 1528.69 553.756C1447.56 558.188 1368.8 577.695 1286.99 577.043C1217.08 576.479 1147.24 561.073 1078.17 554.617C1004.69 547.752 934.422 548.43 863.659 564.044C784.01 581.631 710.517 572.108 633.892 551.879C599.983 542.93 567.433 531.043 533.018 522.945C496.778 514.377 457.073 515.385 419.913 520.407C377.531 526.133 337.093 536.83 297.215 547.535C256.951 558.344 214.102 573.359 170.52 577.009C78.7595 584.638 -16.958 545.858 -105.947 568.667" stroke="url(#paint64_linear_101_708)" stroke-width="0.3" stroke-miterlimit="10"/>
<path d="M1812.67 596.629C1712.54 592.415 1631.46 548.647 1528.26 554.347C1447.12 558.831 1368.19 577.921 1286.27 577.061C1216.39 576.331 1146.88 560.43 1077.84 553.922C1004.32 546.97 933.942 548.074 863.633 564.627C783.211 583.552 710.303 573.229 633.026 552.149C599.197 542.93 566.567 530.921 532.126 522.728C495.912 514.117 456.553 515.203 419.42 520.46C333.629 532.624 256.764 570.709 170.147 578.39C78.5463 586.515 -17.4243 545.12 -105.947 569.076" stroke="url(#paint65_linear_101_708)" stroke-width="0.3" stroke-miterlimit="10"/>
<path d="M1812.67 597.071C1712.38 592.944 1631.33 548.916 1528.01 554.755C1446.85 559.352 1367.66 578.068 1285.78 577.069C1215.89 576.2 1146.68 559.743 1077.66 553.121C1004.12 546.066 933.502 547.491 863.593 564.939C782.465 585.193 710.37 574.271 632.36 552.339C598.811 542.929 566.101 530.46 531.579 522.588C494.912 514.237 456.74 514.915 419.207 520.407C333.269 532.989 256.831 571.108 169.907 579.345C78.4265 588.035 -17.9572 544.111 -105.894 569.335" stroke="url(#paint66_linear_101_708)" stroke-width="0.3" stroke-miterlimit="10"/>
<path d="M1812.67 597.237C1712.27 593.232 1631.37 548.943 1527.94 554.999C1446.79 559.752 1367.48 578.156 1285.45 577.078C1215.54 576.157 1146.6 559.005 1077.6 552.227C1004.05 545.007 933.063 546.666 863.566 564.992C781.812 586.567 710.73 575.254 631.974 552.488C560.026 531.704 500.748 508.043 419.274 520.225C333.109 533.111 257.031 570.909 169.801 579.807C78.4267 589.13 -18.4633 542.834 -106 569.38" stroke="url(#paint67_linear_101_708)" stroke-width="0.3" stroke-miterlimit="10"/>
</g>
<defs>
<linearGradient id="paint0_linear_101_708" x1="-1.37989e+06" y1="-5636.07" x2="-1.37989e+06" y2="-5494.52" gradientUnits="userSpaceOnUse">
<stop stop-color="white"/>
<stop offset="1" stop-color="#D9FD51"/>
</linearGradient>
<linearGradient id="paint1_linear_101_708" x1="-1.37989e+06" y1="-10689.9" x2="-1.37989e+06" y2="-10420.9" gradientUnits="userSpaceOnUse">
<stop stop-color="white"/>
<stop offset="1" stop-color="#D9FD51"/>
</linearGradient>
<linearGradient id="paint2_linear_101_708" x1="-1.37989e+06" y1="-19138.7" x2="-1.37989e+06" y2="-18657.4" gradientUnits="userSpaceOnUse">
<stop stop-color="white"/>
<stop offset="1" stop-color="#D9FD51"/>
</linearGradient>
<linearGradient id="paint3_linear_101_708" x1="-1.37989e+06" y1="-30977" x2="-1.37989e+06" y2="-30198.5" gradientUnits="userSpaceOnUse">
<stop stop-color="white"/>
<stop offset="1" stop-color="#D9FD51"/>
</linearGradient>
<linearGradient id="paint4_linear_101_708" x1="-1.37989e+06" y1="-44512.2" x2="-1.37989e+06" y2="-43394" gradientUnits="userSpaceOnUse">
<stop stop-color="white"/>
<stop offset="1" stop-color="#D9FD51"/>
</linearGradient>
<linearGradient id="paint5_linear_101_708" x1="-1.37989e+06" y1="-62002.5" x2="-1.37989e+06" y2="-60445.5" gradientUnits="userSpaceOnUse">
<stop stop-color="white"/>
<stop offset="1" stop-color="#D9FD51"/>
</linearGradient>
<linearGradient id="paint6_linear_101_708" x1="-1.37989e+06" y1="-79494" x2="-1.37989e+06" y2="-77498.2" gradientUnits="userSpaceOnUse">
<stop stop-color="white"/>
<stop offset="1" stop-color="#D9FD51"/>
</linearGradient>
<linearGradient id="paint7_linear_101_708" x1="-1.37962e+06" y1="-43445.8" x2="-1.37962e+06" y2="-42351.5" gradientUnits="userSpaceOnUse">
<stop stop-color="white"/>
<stop offset="1" stop-color="#D9FD51"/>
</linearGradient>
<linearGradient id="paint8_linear_101_708" x1="-1.37958e+06" y1="-50961.6" x2="-1.37958e+06" y2="-49678.5" gradientUnits="userSpaceOnUse">
<stop stop-color="white"/>
<stop offset="1" stop-color="#D9FD51"/>
</linearGradient>
<linearGradient id="paint9_linear_101_708" x1="-1.37961e+06" y1="-58433" x2="-1.37961e+06" y2="-56962.4" gradientUnits="userSpaceOnUse">
<stop stop-color="white"/>
<stop offset="1" stop-color="#D9FD51"/>
</linearGradient>
<linearGradient id="paint10_linear_101_708" x1="-1.37961e+06" y1="-64178.2" x2="-1.37961e+06" y2="-62563.4" gradientUnits="userSpaceOnUse">
<stop stop-color="white"/>
<stop offset="1" stop-color="#D9FD51"/>
</linearGradient>
<linearGradient id="paint11_linear_101_708" x1="-1.37961e+06" y1="-68443.8" x2="-1.37961e+06" y2="-66721.9" gradientUnits="userSpaceOnUse">
<stop stop-color="white"/>
<stop offset="1" stop-color="#D9FD51"/>
</linearGradient>
<linearGradient id="paint12_linear_101_708" x1="-1.37965e+06" y1="-70738.2" x2="-1.37965e+06" y2="-68958.5" gradientUnits="userSpaceOnUse">
<stop stop-color="white"/>
<stop offset="1" stop-color="#D9FD51"/>
</linearGradient>
<linearGradient id="paint13_linear_101_708" x1="-1.37961e+06" y1="-71779.5" x2="-1.37961e+06" y2="-69973.5" gradientUnits="userSpaceOnUse">
<stop stop-color="#592CB8"/>
<stop offset="1" stop-color="#2C66B8"/>
</linearGradient>
<linearGradient id="paint14_linear_101_708" x1="-1.37958e+06" y1="-72834.6" x2="-1.37958e+06" y2="-71001.9" gradientUnits="userSpaceOnUse">
<stop stop-color="white"/>
<stop offset="1" stop-color="#D9FD51"/>
</linearGradient>
<linearGradient id="paint15_linear_101_708" x1="-1.37959e+06" y1="-73459.5" x2="-1.37959e+06" y2="-71611.2" gradientUnits="userSpaceOnUse">
<stop stop-color="white"/>
<stop offset="1" stop-color="#D9FD51"/>
</linearGradient>
<linearGradient id="paint16_linear_101_708" x1="-1.37964e+06" y1="-73658.5" x2="-1.37964e+06" y2="-71805" gradientUnits="userSpaceOnUse">
<stop stop-color="white"/>
<stop offset="1" stop-color="#D9FD51"/>
</linearGradient>
<linearGradient id="paint17_linear_101_708" x1="-1.37961e+06" y1="-73496.5" x2="-1.37961e+06" y2="-71646.8" gradientUnits="userSpaceOnUse">
<stop stop-color="white"/>
<stop offset="1" stop-color="#D9FD51"/>
</linearGradient>
<linearGradient id="paint18_linear_101_708" x1="-1.37961e+06" y1="-73007.4" x2="-1.37961e+06" y2="-71169.8" gradientUnits="userSpaceOnUse">
<stop stop-color="white"/>
<stop offset="1" stop-color="#D9FD51"/>
</linearGradient>
<linearGradient id="paint19_linear_101_708" x1="-1.37962e+06" y1="-71843.2" x2="-1.37962e+06" y2="-70034.6" gradientUnits="userSpaceOnUse">
<stop stop-color="white"/>
<stop offset="1" stop-color="#D9FD51"/>
</linearGradient>
<linearGradient id="paint20_linear_101_708" x1="-1.37963e+06" y1="-71073.4" x2="-1.37963e+06" y2="-69283.9" gradientUnits="userSpaceOnUse">
<stop stop-color="white"/>
<stop offset="1" stop-color="#D9FD51"/>
</linearGradient>
<linearGradient id="paint21_linear_101_708" x1="-1.37957e+06" y1="-70136.4" x2="-1.37957e+06" y2="-68370.1" gradientUnits="userSpaceOnUse">
<stop stop-color="white"/>
<stop offset="1" stop-color="#D9FD51"/>
</linearGradient>
<linearGradient id="paint22_linear_101_708" x1="-1.37961e+06" y1="-69138.8" x2="-1.37961e+06" y2="-67397.3" gradientUnits="userSpaceOnUse">
<stop stop-color="white"/>
<stop offset="1" stop-color="#D9FD51"/>
</linearGradient>
<linearGradient id="paint23_linear_101_708" x1="-1.37965e+06" y1="-68081.6" x2="-1.37965e+06" y2="-66366.4" gradientUnits="userSpaceOnUse">
<stop stop-color="white"/>
<stop offset="1" stop-color="#D9FD51"/>
</linearGradient>
<linearGradient id="paint24_linear_101_708" x1="-1.37959e+06" y1="-67009.4" x2="-1.37959e+06" y2="-65321" gradientUnits="userSpaceOnUse">
<stop stop-color="white"/>
<stop offset="1" stop-color="#D9FD51"/>
</linearGradient>
<linearGradient id="paint25_linear_101_708" x1="-1.37961e+06" y1="-65603.9" x2="-1.37961e+06" y2="-63950.5" gradientUnits="userSpaceOnUse">
<stop stop-color="white"/>
<stop offset="1" stop-color="#D9FD51"/>
</linearGradient>
<linearGradient id="paint26_linear_101_708" x1="-1.37957e+06" y1="-64605.7" x2="-1.37957e+06" y2="-62977.2" gradientUnits="userSpaceOnUse">
<stop stop-color="white"/>
<stop offset="1" stop-color="#D9FD51"/>
</linearGradient>
<linearGradient id="paint27_linear_101_708" x1="-1.37958e+06" y1="-63718.8" x2="-1.37958e+06" y2="-62112.4" gradientUnits="userSpaceOnUse">
<stop stop-color="white"/>
<stop offset="1" stop-color="#D9FD51"/>
</linearGradient>
<linearGradient id="paint28_linear_101_708" x1="-1.37957e+06" y1="-63027.3" x2="-1.37957e+06" y2="-61438" gradientUnits="userSpaceOnUse">
<stop stop-color="white"/>
<stop offset="1" stop-color="#D9FD51"/>
</linearGradient>
<linearGradient id="paint29_linear_101_708" x1="-1.37965e+06" y1="-62434.9" x2="-1.37965e+06" y2="-60860.3" gradientUnits="userSpaceOnUse">
<stop stop-color="white"/>
<stop offset="1" stop-color="#D9FD51"/>
</linearGradient>
<linearGradient id="paint30_linear_101_708" x1="-1.37961e+06" y1="-62154.8" x2="-1.37961e+06" y2="-60587" gradientUnits="userSpaceOnUse">
<stop stop-color="white"/>
<stop offset="1" stop-color="#D9FD51"/>
</linearGradient>
<linearGradient id="paint31_linear_101_708" x1="-1.37961e+06" y1="-62034.9" x2="-1.37961e+06" y2="-60469.9" gradientUnits="userSpaceOnUse">
<stop stop-color="white"/>
<stop offset="1" stop-color="#D9FD51"/>
</linearGradient>
<linearGradient id="paint32_linear_101_708" x1="-1.37964e+06" y1="-61656.7" x2="-1.37964e+06" y2="-60101.1" gradientUnits="userSpaceOnUse">
<stop stop-color="white"/>
<stop offset="1" stop-color="#D9FD51"/>
</linearGradient>
<linearGradient id="paint33_linear_101_708" x1="-1.37961e+06" y1="-61074.4" x2="-1.37961e+06" y2="-59533.2" gradientUnits="userSpaceOnUse">
<stop stop-color="white"/>
<stop offset="1" stop-color="#D9FD51"/>
</linearGradient>
<linearGradient id="paint34_linear_101_708" x1="-1.37964e+06" y1="-60212.6" x2="-1.37964e+06" y2="-58692.8" gradientUnits="userSpaceOnUse">
<stop stop-color="white"/>
<stop offset="1" stop-color="#D9FD51"/>
</linearGradient>
<linearGradient id="paint35_linear_101_708" x1="-1.37961e+06" y1="-59174.5" x2="-1.37961e+06" y2="-57680.6" gradientUnits="userSpaceOnUse">
<stop stop-color="white"/>
<stop offset="1" stop-color="#D9FD51"/>
</linearGradient>
<linearGradient id="paint36_linear_101_708" x1="-1.37964e+06" y1="-57928.2" x2="-1.37964e+06" y2="-56465.4" gradientUnits="userSpaceOnUse">
<stop stop-color="white"/>
<stop offset="1" stop-color="#D9FD51"/>
</linearGradient>
<linearGradient id="paint37_linear_101_708" x1="-1.3796e+06" y1="-56535.1" x2="-1.3796e+06" y2="-55107" gradientUnits="userSpaceOnUse">
<stop stop-color="white"/>
<stop offset="1" stop-color="#D9FD51"/>
</linearGradient>
<linearGradient id="paint38_linear_101_708" x1="-1.37961e+06" y1="-54954" x2="-1.37961e+06" y2="-53565.3" gradientUnits="userSpaceOnUse">
<stop stop-color="white"/>
<stop offset="1" stop-color="#D9FD51"/>
</linearGradient>
<linearGradient id="paint39_linear_101_708" x1="-1.37959e+06" y1="-53196.1" x2="-1.37959e+06" y2="-51851.3" gradientUnits="userSpaceOnUse">
<stop stop-color="white"/>
<stop offset="1" stop-color="#D9FD51"/>
</linearGradient>
<linearGradient id="paint40_linear_101_708" x1="-1.37961e+06" y1="-51381.3" x2="-1.37961e+06" y2="-50081.8" gradientUnits="userSpaceOnUse">
<stop stop-color="white"/>
<stop offset="1" stop-color="#D9FD51"/>
</linearGradient>
<linearGradient id="paint41_linear_101_708" x1="-1.37961e+06" y1="-49417.7" x2="-1.37961e+06" y2="-48167.2" gradientUnits="userSpaceOnUse">
<stop stop-color="white"/>
<stop offset="1" stop-color="#D9FD51"/>
</linearGradient>
<linearGradient id="paint42_linear_101_708" x1="-1.37961e+06" y1="-47437.7" x2="-1.37961e+06" y2="-46236.8" gradientUnits="userSpaceOnUse">
<stop stop-color="white"/>
<stop offset="1" stop-color="#D9FD51"/>
</linearGradient>
<linearGradient id="paint43_linear_101_708" x1="-1.37961e+06" y1="-45352.6" x2="-1.37961e+06" y2="-44203.7" gradientUnits="userSpaceOnUse">
<stop stop-color="white"/>
<stop offset="1" stop-color="#D9FD51"/>
</linearGradient>
<linearGradient id="paint44_linear_101_708" x1="-1.37961e+06" y1="-43276" x2="-1.37961e+06" y2="-42179" gradientUnits="userSpaceOnUse">
<stop stop-color="white"/>
<stop offset="1" stop-color="#D9FD51"/>
</linearGradient>
<linearGradient id="paint45_linear_101_708" x1="-1.37954e+06" y1="-41242.3" x2="-1.37954e+06" y2="-40196.2" gradientUnits="userSpaceOnUse">
<stop stop-color="white"/>
<stop offset="1" stop-color="#D9FD51"/>
</linearGradient>
<linearGradient id="paint46_linear_101_708" x1="-1.37966e+06" y1="-39062.5" x2="-1.37966e+06" y2="-38070.8" gradientUnits="userSpaceOnUse">
<stop stop-color="white"/>
<stop offset="1" stop-color="#D9FD51"/>
</linearGradient>
<linearGradient id="paint47_linear_101_708" x1="-1.37961e+06" y1="-37721.2" x2="-1.37961e+06" y2="-36763.1" gradientUnits="userSpaceOnUse">
<stop stop-color="white"/>
<stop offset="1" stop-color="#D9FD51"/>
</linearGradient>
<linearGradient id="paint48_linear_101_708" x1="-1.37961e+06" y1="-36065.6" x2="-1.37961e+06" y2="-35148.9" gradientUnits="userSpaceOnUse">
<stop stop-color="white"/>
<stop offset="1" stop-color="#D9FD51"/>
</linearGradient>
<linearGradient id="paint49_linear_101_708" x1="-1.37964e+06" y1="-34749.9" x2="-1.37964e+06" y2="-33866.1" gradientUnits="userSpaceOnUse">
<stop stop-color="white"/>
<stop offset="1" stop-color="#D9FD51"/>
</linearGradient>
<linearGradient id="paint50_linear_101_708" x1="-1.37961e+06" y1="-33686.2" x2="-1.37961e+06" y2="-32829" gradientUnits="userSpaceOnUse">
<stop stop-color="white"/>
<stop offset="1" stop-color="#D9FD51"/>
</linearGradient>
<linearGradient id="paint51_linear_101_708" x1="-1.37956e+06" y1="-32802.2" x2="-1.37956e+06" y2="-31967.1" gradientUnits="userSpaceOnUse">
<stop stop-color="white"/>
<stop offset="1" stop-color="#D9FD51"/>
</linearGradient>
<linearGradient id="paint52_linear_101_708" x1="-1.37958e+06" y1="-32050.2" x2="-1.37958e+06" y2="-31233.9" gradientUnits="userSpaceOnUse">
<stop stop-color="white"/>
<stop offset="1" stop-color="#D9FD51"/>
</linearGradient>
<linearGradient id="paint53_linear_101_708" x1="-1.37957e+06" y1="-31438.8" x2="-1.37957e+06" y2="-30637.8" gradientUnits="userSpaceOnUse">
<stop stop-color="white"/>
<stop offset="1" stop-color="#D9FD51"/>
</linearGradient>
<linearGradient id="paint54_linear_101_708" x1="-1.37959e+06" y1="-31465.2" x2="-1.37959e+06" y2="-30663.5" gradientUnits="userSpaceOnUse">
<stop stop-color="white"/>
<stop offset="1" stop-color="#D9FD51"/>
</linearGradient>
<linearGradient id="paint55_linear_101_708" x1="-1.37965e+06" y1="-32315.1" x2="-1.37965e+06" y2="-31492" gradientUnits="userSpaceOnUse">
<stop stop-color="white"/>
<stop offset="1" stop-color="#D9FD51"/>
</linearGradient>
<linearGradient id="paint56_linear_101_708" x1="-1.37962e+06" y1="-33194.4" x2="-1.37962e+06" y2="-32349.2" gradientUnits="userSpaceOnUse">
<stop stop-color="white"/>
<stop offset="1" stop-color="#D9FD51"/>
</linearGradient>
<linearGradient id="paint57_linear_101_708" x1="-1.37961e+06" y1="-34088" x2="-1.37961e+06" y2="-33220.4" gradientUnits="userSpaceOnUse">
<stop stop-color="white"/>
<stop offset="1" stop-color="#D9FD51"/>
</linearGradient>
<linearGradient id="paint58_linear_101_708" x1="-1.37956e+06" y1="-35006.3" x2="-1.37956e+06" y2="-34115.6" gradientUnits="userSpaceOnUse">
<stop stop-color="white"/>
<stop offset="1" stop-color="#D9FD51"/>
</linearGradient>
<linearGradient id="paint59_linear_101_708" x1="-1.37957e+06" y1="-35856.9" x2="-1.37957e+06" y2="-34944.9" gradientUnits="userSpaceOnUse">
<stop stop-color="white"/>
<stop offset="1" stop-color="#D9FD51"/>
</linearGradient>
<linearGradient id="paint60_linear_101_708" x1="-1.3796e+06" y1="-36688" x2="-1.3796e+06" y2="-35755.1" gradientUnits="userSpaceOnUse">
<stop stop-color="white"/>
<stop offset="1" stop-color="#D9FD51"/>
</linearGradient>
<linearGradient id="paint61_linear_101_708" x1="-1.3796e+06" y1="-37454.2" x2="-1.3796e+06" y2="-36502.1" gradientUnits="userSpaceOnUse">
<stop stop-color="white"/>
<stop offset="1" stop-color="#D9FD51"/>
</linearGradient>
<linearGradient id="paint62_linear_101_708" x1="-1.37961e+06" y1="-38157" x2="-1.37961e+06" y2="-37187.3" gradientUnits="userSpaceOnUse">
<stop stop-color="white"/>
<stop offset="1" stop-color="#D9FD51"/>
</linearGradient>
<linearGradient id="paint63_linear_101_708" x1="-1.3796e+06" y1="-38830.1" x2="-1.3796e+06" y2="-37843.5" gradientUnits="userSpaceOnUse">
<stop stop-color="white"/>
<stop offset="1" stop-color="#D9FD51"/>
</linearGradient>
<linearGradient id="paint64_linear_101_708" x1="-1.37961e+06" y1="-39336.8" x2="-1.37961e+06" y2="-38337.5" gradientUnits="userSpaceOnUse">
<stop stop-color="white"/>
<stop offset="1" stop-color="#D9FD51"/>
</linearGradient>
<linearGradient id="paint65_linear_101_708" x1="-1.37961e+06" y1="-39776.4" x2="-1.37961e+06" y2="-38766.1" gradientUnits="userSpaceOnUse">
<stop stop-color="white"/>
<stop offset="1" stop-color="#D9FD51"/>
</linearGradient>
<linearGradient id="paint66_linear_101_708" x1="-1.37957e+06" y1="-40045" x2="-1.37957e+06" y2="-39028" gradientUnits="userSpaceOnUse">
<stop stop-color="white"/>
<stop offset="1" stop-color="#D9FD51"/>
</linearGradient>
<linearGradient id="paint67_linear_101_708" x1="-1.37965e+06" y1="-39823.3" x2="-1.37965e+06" y2="-38811.9" gradientUnits="userSpaceOnUse">
<stop stop-color="white"/>
<stop offset="1" stop-color="#D9FD51"/>
</linearGradient>
</defs>
</svg>
